<?xml version="1.0" standalone="no"?>
<!DOCTYPE svg PUBLIC "-//W3C//DTD SVG 20010904//EN"
 "http://www.w3.org/TR/2001/REC-SVG-20010904/DTD/svg10.dtd">
<svg version="1.0" xmlns="http://www.w3.org/2000/svg"
 width="512.000000pt" height="512.000000pt" viewBox="0 0 512.000000 512.000000"
 preserveAspectRatio="xMidYMid meet">
<metadata>
Created by potrace 1.11, written by Peter Selinger 2001-2013
</metadata>
<g transform="translate(0.000000,512.000000) scale(0.100000,-0.100000)"
fill="#000000" stroke="none">
<path d="M2537 4974 c-2 -3 -40 -5 -83 -6 -43 0 -83 -3 -89 -7 -5 -3 -23 -4
-39 -2 -21 2 -26 -1 -21 -11 6 -10 5 -10 -4 -2 -8 7 -25 9 -44 4 -39 -8 -36
-8 -97 -16 -30 -4 -47 -11 -43 -17 3 -6 1 -7 -6 -3 -14 9 -119 -13 -128 -27
-3 -5 3 -7 13 -4 11 4 58 7 106 9 47 2 84 6 82 9 -5 9 27 21 34 14 3 -3 -1 -5
-8 -5 -7 0 -10 -3 -6 -7 4 -4 39 -6 77 -5 54 2 78 8 106 28 20 13 41 24 47 24
6 0 -4 -9 -21 -20 -18 -11 -33 -22 -33 -24 0 -2 43 -3 95 -3 l95 1 0 28 c0 15
1 31 3 35 2 7 -29 13 -36 7z"/>
<path d="M2601 4972 c-6 -2 -11 -18 -11 -36 l0 -33 95 -1 c52 -1 95 0 95 3 0
3 -15 14 -32 25 -18 11 -29 20 -24 20 5 0 28 -11 51 -24 31 -18 57 -25 105
-26 36 -1 70 -1 75 0 6 1 15 1 20 0 6 -2 47 -4 93 -6 46 -2 88 -6 93 -9 5 -4
9 -2 9 4 0 6 -17 13 -37 17 -21 4 -47 9 -58 11 -140 31 -209 41 -330 48 -44 3
-80 5 -80 6 0 3 -55 4 -64 1z"/>
<path d="M3188 4883 c7 -3 16 -2 19 1 4 3 -2 6 -13 5 -11 0 -14 -3 -6 -6z"/>
<path d="M2114 4861 c-33 -6 -165 -103 -251 -185 -46 -43 -81 -81 -79 -84 5
-4 52 -4 283 1 l53 2 30 56 c16 31 51 85 78 119 26 35 53 72 61 82 14 19 11
19 -71 16 -46 -2 -93 -5 -104 -7z"/>
<path d="M2304 4833 c-53 -67 -134 -207 -134 -231 0 -7 369 -6 377 1 2 3 6 64
9 136 l5 131 -114 0 -114 0 -29 -37z"/>
<path d="M2594 4740 c1 -72 5 -132 7 -135 8 -7 367 -10 375 -3 9 9 -68 150
-117 216 l-40 52 -114 0 -115 0 4 -130z"/>
<path d="M2850 4865 c0 -3 11 -17 25 -31 30 -30 96 -126 119 -174 29 -60 37
-66 91 -67 28 0 101 -1 162 -3 62 -1 113 2 113 6 0 5 -28 38 -62 72 -55 56
-99 92 -198 165 -19 14 -21 17 -5 12 34 -11 171 -115 246 -188 68 -67 75 -71
123 -73 28 -2 87 -6 130 -9 l79 -5 -24 26 c-27 29 -179 134 -239 164 -22 11
-40 23 -40 25 0 16 190 -100 280 -171 49 -38 63 -44 120 -49 36 -3 81 -8 100
-10 31 -4 33 -3 13 7 -13 6 -23 15 -23 20 0 4 -5 8 -11 8 -5 0 -7 -6 -3 -12 4
-7 -4 -1 -18 13 -35 37 -75 62 -88 54 -6 -4 -9 -1 -8 7 2 7 -3 12 -9 11 -7 -2
-13 2 -13 8 0 5 -4 8 -9 5 -5 -4 -11 -3 -13 2 -4 9 -143 78 -258 128 -87 37
-121 43 -285 49 -49 2 -90 5 -90 6 0 0 -46 3 -102 6 -57 2 -103 1 -103 -2z
m445 -35 c3 -6 -1 -7 -9 -4 -18 7 -21 14 -7 14 6 0 13 -4 16 -10z"/>
<path d="M1936 4853 c-2 -2 -30 -5 -62 -7 -60 -4 -77 -9 -162 -46 -67 -30 -83
-37 -119 -52 -18 -7 -33 -16 -33 -20 0 -5 -8 -8 -18 -8 -10 0 -28 -9 -39 -19
-12 -11 -24 -17 -27 -14 -3 4 -6 1 -6 -6 0 -7 -4 -10 -10 -6 -5 3 -18 -3 -29
-14 -11 -11 -22 -17 -25 -13 -3 3 -6 0 -6 -7 0 -7 -4 -10 -9 -6 -5 3 -15 0
-23 -7 -7 -7 -25 -19 -39 -26 -14 -8 -39 -25 -55 -39 -16 -13 -23 -21 -15 -17
14 7 22 8 126 18 45 4 69 13 100 36 64 49 236 163 240 159 2 -2 -36 -30 -83
-62 -48 -32 -105 -74 -127 -93 l-40 -34 100 6 c55 3 114 7 132 8 24 2 47 17
95 64 68 67 173 149 241 188 l42 25 -73 -3 c-40 -1 -74 -4 -76 -5z m-56 -23
c-8 -5 -19 -10 -25 -10 -5 0 -3 5 5 10 8 5 20 10 25 10 6 0 3 -5 -5 -10z m-51
-24 c-10 -9 -89 -46 -89 -41 0 6 72 44 84 45 5 0 7 -2 5 -4z m-489 -220 c0 -2
-7 -7 -16 -10 -8 -3 -12 -2 -9 4 6 10 25 14 25 6z"/>
<path d="M2390 4514 c-8 -20 -24 -123 -35 -219 -3 -27 -11 -85 -16 -129 -6
-43 -8 -80 -5 -83 4 -5 460 -8 529 -4 16 1 18 8 12 64 -7 65 -52 340 -61 370
-6 20 10 19 -228 21 -182 1 -189 0 -196 -20z"/>
<path d="M1748 4522 c-24 -3 -43 -20 -86 -77 -51 -68 -175 -287 -201 -356 -9
-26 -9 -26 32 -24 23 2 131 5 240 6 108 2 197 4 197 6 0 16 97 308 124 371
l34 82 -156 -2 c-87 -2 -169 -4 -184 -6z"/>
<path d="M2097 4432 c-19 -53 -47 -142 -62 -197 -15 -55 -31 -113 -36 -129 -5
-16 -7 -31 -4 -34 5 -6 256 -5 261 1 2 2 -7 23 -19 47 -27 55 -87 188 -87 195
0 3 32 5 70 5 39 0 70 2 70 5 0 3 -9 16 -21 28 -11 12 -47 57 -79 99 l-58 78
-35 -98z"/>
<path d="M2864 4513 c3 -10 7 -29 10 -43 3 -14 16 -79 30 -145 13 -66 27 -146
31 -178 4 -31 12 -60 18 -64 20 -12 507 -14 507 -2 0 35 -130 322 -185 410
l-24 37 -196 1 c-185 2 -196 1 -191 -16z"/>
<path d="M3300 4525 c0 0 28 -50 63 -111 34 -60 84 -161 111 -224 27 -63 50
-116 51 -118 1 -1 98 -5 215 -8 l213 -6 -23 38 c-13 22 -30 50 -39 64 -59 100
-162 240 -232 314 -41 43 -10 38 -279 49 -44 2 -80 3 -80 2z"/>
<path d="M1474 4510 c-70 -5 -89 -13 -127 -55 -10 -11 -40 -42 -65 -70 -72
-75 -167 -200 -235 -308 l-18 -28 133 6 c73 3 156 6 184 6 l50 2 44 86 c44 85
166 276 216 339 l27 32 -69 -2 c-38 -2 -101 -5 -140 -8z"/>
<path d="M3700 4464 c25 -27 48 -51 51 -54 11 -10 159 -209 159 -214 0 -10 81
-130 92 -137 6 -4 37 -7 69 -8 32 0 93 -3 134 -6 41 -4 75 -3 75 1 0 4 -32 50
-72 103 -84 112 -301 337 -332 345 -12 3 -67 8 -122 12 l-99 6 45 -48z"/>
<path d="M1240 4492 c-19 -2 -43 -11 -52 -19 -12 -11 -18 -12 -18 -4 0 45
-305 -250 -421 -407 -28 -38 -29 -42 -10 -39 11 2 35 23 53 48 17 24 36 49 42
55 6 7 34 39 61 72 28 34 54 61 59 61 6 1 -4 -14 -21 -31 -35 -38 -153 -187
-153 -194 0 -2 26 -2 58 1 31 3 77 8 102 10 25 2 48 4 51 4 3 1 25 31 49 67
57 89 168 224 255 312 l72 72 -46 -2 c-25 -2 -62 -4 -81 -6z m-110 -67 c-19
-19 -37 -35 -42 -35 -8 0 63 69 71 70 3 0 -10 -16 -29 -35z m-108 -104 c-28
-28 -54 -51 -59 -51 -4 0 17 25 47 55 29 30 56 53 58 50 2 -2 -19 -27 -46 -54z"/>
<path d="M4039 4363 c70 -70 160 -172 200 -225 41 -54 76 -99 80 -99 3 -1 20
-3 36 -5 17 -1 43 -5 59 -8 l28 -6 -28 38 c-85 113 -230 267 -350 370 -49 42
-71 54 -107 58 l-46 6 128 -129z"/>
<path d="M2013 3972 c-33 -2 -42 -7 -47 -25 -26 -108 -92 -554 -83 -564 5 -4
639 -5 643 0 1 1 4 135 6 297 l5 295 -241 0 c-133 0 -260 -1 -283 -3z"/>
<path d="M2607 3965 c-4 -13 1 -576 6 -581 2 -3 512 -6 630 -4 20 0 20 -13 -8
210 -3 25 -10 72 -15 105 -5 33 -12 78 -16 100 -10 70 -32 166 -38 172 -11 11
-555 10 -559 -2z"/>
<path d="M1403 3957 c-27 -43 -145 -439 -167 -559 l-4 -27 271 4 c150 2 279 4
288 4 12 1 19 29 34 139 10 75 32 208 49 295 l32 158 -249 -3 c-137 -2 -251
-6 -254 -11z"/>
<path d="M3240 3963 c0 -4 9 -53 19 -108 32 -161 47 -261 67 -425 3 -25 7 -47
9 -49 2 -1 132 -5 289 -7 l286 -4 -6 32 c-24 136 -139 521 -165 553 -9 13
-499 20 -499 8z"/>
<path d="M1038 3952 l-67 -3 -41 -82 c-59 -116 -113 -249 -154 -377 -20 -60
-36 -114 -36 -119 0 -9 420 -5 429 5 3 2 6 10 7 17 15 91 123 442 169 550 7
17 -1 18 -116 15 -68 -2 -154 -4 -191 -6z"/>
<path d="M3810 3915 c49 -115 135 -398 154 -509 3 -16 7 -30 9 -32 6 -6 437
-11 437 -5 -1 12 -58 188 -89 270 -18 47 -56 136 -86 198 l-54 113 -48 1 c-26
0 -114 3 -196 5 l-147 6 20 -47z"/>
<path d="M909 3946 c-2 -2 -47 -6 -99 -9 -89 -5 -96 -7 -117 -33 -35 -45 -156
-289 -197 -399 -21 -55 -42 -110 -47 -123 -5 -13 -9 -25 -9 -28 0 -2 37 -2 83
0 45 3 102 5 127 5 l45 1 23 78 c35 116 103 285 161 400 28 56 51 104 51 107
0 6 -15 7 -21 1z"/>
<path d="M4220 3945 c0 -2 22 -49 49 -103 60 -118 118 -263 157 -389 l28 -93
46 -1 c25 0 82 -2 128 -5 45 -2 82 1 82 6 0 24 -77 218 -129 325 -78 160 -130
245 -150 246 -9 0 -32 2 -51 4 -86 9 -160 13 -160 10z"/>
<path d="M662 3920 c-43 -18 -182 -272 -262 -481 l-37 -97 28 2 c26 1 30 8 66
106 39 106 146 331 203 428 17 28 30 52 28 51 -2 0 -13 -4 -26 -9z"/>
<path d="M4470 3925 c0 -2 30 -57 66 -122 69 -124 140 -281 175 -387 17 -54
24 -65 47 -69 35 -7 37 -4 24 30 -80 212 -105 265 -190 415 -51 90 -73 120
-94 127 -16 6 -28 8 -28 6z"/>
<path d="M1343 3262 c-96 -2 -133 -6 -134 -15 0 -7 -2 -21 -4 -32 -2 -11 -7
-40 -10 -65 -3 -25 -10 -80 -15 -123 -5 -42 -12 -137 -16 -210 -3 -72 -7 -151
-8 -175 l-3 -42 304 2 305 3 4 160 c2 88 6 194 8 235 3 41 8 118 12 170 l6 96
-158 -1 c-88 0 -219 -1 -291 -3z"/>
<path d="M1869 3250 c0 -8 -2 -22 -3 -30 -7 -34 -17 -228 -22 -417 l-6 -203
344 0 345 0 1 333 2 334 -330 -1 c-287 -1 -330 -3 -331 -16z"/>
<path d="M2610 2934 l0 -334 68 -1 c259 -2 605 2 613 7 17 10 -9 635 -27 654
-3 3 -152 5 -330 6 l-324 1 0 -333z"/>
<path d="M3357 3258 c-10 -6 -11 -41 -2 -128 6 -50 17 -308 19 -422 1 -53 4
-100 8 -103 7 -8 585 -8 597 -1 11 7 2 253 -14 396 -33 286 -21 260 -119 261
-44 0 -170 1 -279 2 -109 1 -204 -1 -210 -5z"/>
<path d="M740 3250 l-34 -5 -17 -85 c-10 -47 -21 -112 -24 -145 -4 -33 -9 -68
-10 -77 -5 -26 -17 -185 -20 -265 l-2 -73 228 0 229 0 1 28 c5 189 36 531 55
609 l6 21 -189 -1 c-103 -1 -204 -4 -223 -7z"/>
<path d="M3994 3242 c6 -20 12 -60 25 -172 18 -149 21 -191 27 -329 4 -75 7
-137 8 -138 3 -3 193 -5 357 -4 l105 1 -2 53 c-10 202 -23 322 -49 472 -23
132 -19 125 -78 126 -395 8 -398 8 -393 -9z"/>
<path d="M440 3242 c-32 -5 -38 -10 -45 -49 -3 -18 -12 -61 -20 -95 -8 -35
-17 -85 -20 -113 -4 -27 -8 -57 -10 -65 -6 -22 -17 -161 -20 -245 l-2 -75 133
0 134 0 1 43 c4 132 13 260 25 332 16 105 46 259 50 267 5 8 -164 8 -226 0z"/>
<path d="M4501 3161 c10 -49 23 -130 29 -178 6 -48 13 -106 16 -128 2 -22 6
-86 8 -143 2 -57 6 -105 8 -107 4 -4 159 -8 242 -6 l29 1 -7 123 c-3 67 -8
133 -11 147 -2 14 -7 47 -10 74 -6 57 -53 287 -59 294 -2 2 -63 6 -134 9
l-130 5 19 -91z"/>
<path d="M344 3232 c-12 -8 -18 -26 -40 -127 -26 -123 -45 -267 -51 -390 l-5
-121 27 1 c28 2 28 3 31 71 7 192 19 274 77 556 2 14 -24 21 -39 10z"/>
<path d="M4773 3213 c2 -16 14 -71 25 -123 29 -132 49 -304 51 -432 l1 -58 34
0 c32 0 33 1 31 38 -2 20 -6 84 -10 142 -3 57 -8 107 -10 110 -1 3 -5 28 -9
55 -14 115 -53 277 -69 287 -7 4 -20 8 -31 8 -15 0 -17 -6 -13 -27z"/>
<path d="M253 2477 c-16 -26 31 -353 75 -517 26 -98 30 -105 55 -108 15 -2 27
-1 27 2 0 3 -9 38 -20 78 -10 40 -21 84 -24 98 -3 14 -11 59 -19 100 -17 85
-25 144 -33 245 -8 102 -10 111 -34 111 -12 0 -24 -4 -27 -9z"/>
<path d="M331 2482 c-5 -2 -8 -9 -6 -15 2 -7 6 -50 9 -97 10 -158 76 -488 102
-514 11 -12 35 -14 204 -19 28 -1 44 3 43 10 -5 26 -13 63 -27 128 -21 92 -43
242 -51 335 -8 102 -15 164 -20 168 -5 5 -241 8 -254 4z"/>
<path d="M641 2482 c-5 -2 -8 -13 -6 -25 2 -12 6 -60 9 -106 3 -47 10 -87 15
-90 5 -3 107 -6 227 -6 l219 0 -4 45 c-2 25 -4 73 -6 108 -1 34 -4 64 -7 67
-5 6 -432 12 -447 7z"/>
<path d="M1159 2470 c-6 -63 12 -280 37 -460 9 -58 17 -114 18 -125 9 -67 -14
-62 302 -64 l285 -2 -6 68 c-3 37 -8 86 -10 108 -8 73 -21 325 -24 462 l-1 22
-300 3 c-261 3 -300 1 -301 -12z"/>
<path d="M3654 2482 l-282 -2 -2 -103 c-1 -56 -3 -133 -5 -172 -6 -112 -25
-338 -31 -368 -3 -17 12 -18 286 -16 254 2 290 4 294 18 11 37 28 148 41 266
4 33 8 71 11 85 2 14 7 84 10 156 l7 131 -24 4 c-13 2 -151 3 -305 1z"/>
<path d="M4195 2480 l-149 -5 -2 -45 c-2 -70 -14 -242 -18 -270 -3 -14 -7 -50
-11 -81 -3 -31 -8 -67 -10 -80 -10 -51 -19 -115 -19 -144 l-1 -30 90 2 c50 1
145 2 213 3 l123 2 11 27 c13 33 55 248 64 326 3 33 8 68 10 78 2 10 6 63 9
118 l7 99 -29 1 c-15 0 -53 1 -83 2 -30 1 -122 0 -205 -3z"/>
<path d="M4559 2480 c-3 -12 -7 -60 -13 -138 -8 -116 -33 -279 -61 -397 -13
-55 -21 -103 -19 -107 3 -4 21 -5 42 -3 20 2 74 5 119 6 47 1 87 6 92 13 10
11 55 183 66 246 3 19 8 48 11 63 12 56 28 221 29 287 l0 35 -132 0 c-73 0
-134 -2 -134 -5z"/>
<path d="M4855 2480 c-3 -5 -7 -36 -20 -175 -8 -84 -42 -264 -70 -367 l-23
-88 28 0 c25 0 30 6 44 48 20 59 63 250 72 317 3 28 8 58 10 68 2 10 6 60 10
111 l6 92 -26 0 c-15 0 -29 -3 -31 -6z"/>
<path d="M1844 2298 c4 -101 9 -203 11 -228 2 -25 6 -90 10 -145 4 -55 9 -102
11 -104 2 -2 148 -4 326 -5 l323 -1 0 333 0 332 -344 0 -343 0 6 -182z"/>
<path d="M2610 2473 c-7 -138 -2 -647 5 -652 11 -8 633 -7 641 1 9 9 21 162
30 378 3 80 7 175 8 213 l3 67 -343 0 c-189 0 -344 -3 -344 -7z"/>
<path d="M680 2060 c0 -5 10 -52 21 -103 12 -50 22 -98 22 -104 0 -8 17 -13
46 -14 25 0 124 -2 219 -4 l174 -4 -6 42 c-3 23 -8 52 -10 64 -8 42 -20 118
-19 123 1 3 -99 7 -223 8 -152 2 -224 -1 -224 -8z"/>
<path d="M400 1746 c0 -3 14 -40 31 -83 45 -114 134 -285 202 -388 69 -105 57
-91 85 -99 19 -6 14 6 -36 86 -69 109 -157 282 -197 388 -16 41 -31 78 -34 81
-8 9 -51 22 -51 15z"/>
<path d="M4725 1743 c-15 -3 -29 -28 -54 -91 -42 -110 -131 -287 -186 -373
-24 -37 -48 -76 -55 -89 -11 -20 -10 -21 12 -15 29 9 44 27 116 145 74 121
121 213 166 322 36 88 42 109 29 107 -5 -1 -17 -4 -28 -6z"/>
<path d="M470 1726 c0 -7 4 -16 9 -21 5 -6 14 -28 21 -50 20 -66 129 -284 193
-385 32 -52 60 -96 62 -98 1 -1 27 -5 56 -7 30 -3 78 -8 108 -11 29 -3 51 -2
50 3 -2 4 -43 87 -91 183 -47 96 -101 218 -119 270 -17 52 -37 100 -43 106
-15 17 -246 25 -246 10z"/>
<path d="M4616 1733 c-1 -1 -43 -3 -93 -4 l-91 -1 -27 -77 c-14 -42 -30 -85
-35 -96 -5 -11 -25 -58 -45 -105 -20 -47 -61 -131 -91 -188 -30 -57 -54 -105
-54 -107 0 -3 129 4 175 10 11 1 26 3 33 4 38 4 292 488 292 558 0 8 -56 14
-64 6z"/>
<path d="M760 1725 c0 -11 67 -194 100 -270 39 -93 133 -281 148 -297 10 -10
358 -25 367 -16 3 3 -6 31 -20 62 -46 105 -109 296 -154 471 l-10 40 -168 3
c-93 2 -189 5 -215 6 -27 2 -48 2 -48 1z"/>
<path d="M4286 1723 c-1 -1 -71 -3 -156 -4 -85 -2 -160 -4 -166 -6 -7 -3 -17
-25 -24 -51 -37 -142 -84 -290 -124 -392 -25 -63 -46 -121 -46 -128 0 -8 8
-11 23 -8 12 3 94 8 182 11 87 3 162 8 166 13 39 40 223 458 235 534 l6 33
-47 0 c-26 0 -48 -1 -49 -2z"/>
<path d="M1254 1709 c-11 -18 106 -400 160 -520 l24 -56 174 -3 c285 -4 298
-3 303 2 3 2 -4 47 -15 99 -29 134 -40 189 -46 229 -3 19 -9 58 -14 85 -5 28
-12 76 -16 107 l-6 57 -207 1 c-113 1 -239 2 -279 3 -41 1 -76 -1 -78 -4z"/>
<path d="M3750 1712 c-25 -1 -130 -3 -235 -5 l-189 -2 -7 -40 c-4 -22 -10 -60
-13 -85 -3 -25 -8 -55 -10 -66 -2 -12 -7 -37 -10 -55 -3 -19 -17 -92 -32 -164
-38 -185 -41 -170 36 -169 294 5 411 8 418 13 30 21 195 551 177 570 -7 6 -63
7 -135 3z"/>
<path d="M1895 1656 c10 -83 45 -305 62 -386 8 -41 17 -88 20 -105 3 -16 9
-32 14 -35 4 -3 129 -6 276 -5 l268 0 -2 180 c-1 99 -2 230 -2 290 l-1 110
-320 1 -320 1 5 -51z"/>
<path d="M2609 1675 c0 -16 -1 -147 -2 -290 l-2 -260 275 0 275 0 22 105 c12
58 25 125 28 149 3 24 13 88 21 142 8 54 17 118 19 142 l6 44 -321 -1 -320 -1
-1 -30z"/>
<path d="M777 1076 c28 -50 209 -239 296 -311 65 -53 82 -57 30 -6 -23 23 -39
41 -35 41 12 0 83 -76 77 -82 -3 -3 15 -22 40 -42 42 -35 61 -38 33 -6 -7 8
-2 5 12 -7 28 -24 54 -31 136 -37 l51 -3 -96 96 c-84 83 -224 248 -271 319
-13 20 -27 24 -115 31 -55 5 -102 7 -104 5 -6 -6 96 -126 192 -226 9 -10 14
-18 10 -18 -8 0 -73 69 -146 155 -29 33 -62 70 -75 83 -26 25 -47 30 -35 8z
m408 -376 c3 -6 -1 -7 -9 -4 -18 7 -21 14 -7 14 6 0 13 -4 16 -10z"/>
<path d="M4360 1083 c-8 -2 -28 -23 -45 -46 -37 -53 -220 -242 -299 -311 -33
-28 10 19 95 104 84 85 169 177 187 203 l34 48 -44 -6 c-23 -3 -72 -7 -107
-10 -35 -2 -65 -6 -66 -7 -2 -2 -38 -50 -81 -108 -42 -58 -125 -154 -183 -213
-58 -59 -108 -110 -111 -113 -6 -6 116 8 179 20 54 12 276 209 416 370 65 75
67 81 25 69z m-410 -407 c0 -2 -8 -10 -17 -17 -16 -13 -17 -12 -4 4 13 16 21
21 21 13z"/>
<path d="M1076 1048 c65 -109 308 -385 371 -421 8 -5 74 -11 146 -14 l130 -6
-23 24 c-59 62 -153 199 -229 335 l-46 81 -85 2 c-47 1 -127 4 -179 7 -76 5
-92 3 -85 -8z"/>
<path d="M3930 1053 c-14 -2 -67 -4 -118 -5 l-93 -3 -35 -65 c-56 -103 -119
-201 -184 -285 -61 -80 -70 -98 -47 -90 6 2 65 6 130 9 130 6 133 7 222 102
16 17 48 51 71 75 42 46 157 194 187 241 l17 28 -62 -3 c-35 -1 -74 -3 -88 -4z"/>
<path d="M1480 1041 c1 -15 98 -186 155 -271 104 -155 113 -163 176 -166 196
-8 284 -7 285 1 2 12 -8 38 -35 98 -10 23 -41 107 -67 187 l-48 146 -180 3
c-100 1 -205 4 -233 5 -29 1 -53 0 -53 -3z"/>
<path d="M3577 1044 c-1 -2 -87 -5 -189 -6 -103 -2 -189 -6 -191 -9 -2 -2 -21
-58 -41 -124 -21 -66 -55 -161 -76 -212 -21 -51 -36 -94 -34 -95 2 -2 27 -3
56 -2 29 2 106 4 172 5 l119 3 43 56 c89 114 234 364 220 378 -6 5 -74 10 -79
6z"/>
<path d="M2014 1028 c-5 -7 57 -221 86 -298 12 -30 26 -68 32 -85 6 -16 15
-34 20 -40 5 -6 89 -11 204 -12 l194 -1 -6 216 c-3 120 -7 218 -8 219 -5 5
-519 7 -522 1z"/>
<path d="M2804 1032 l-202 -2 -1 -196 c-1 -107 -2 -198 -2 -202 -6 -42 -9 -42
197 -39 161 2 197 5 204 17 25 45 130 381 130 417 0 9 -10 10 -326 5z"/>
<path d="M1330 576 c0 -2 12 -11 26 -21 18 -12 24 -13 19 -4 -3 8 0 6 8 -3 8
-10 22 -18 31 -18 10 0 15 -4 12 -8 -2 -4 4 -14 16 -21 16 -10 19 -10 14 1 -4
7 1 3 10 -9 17 -24 40 -32 29 -10 -4 6 -1 5 7 -3 10 -12 153 -88 178 -95 3 -1
19 -7 35 -14 145 -62 172 -69 310 -76 l100 -6 -50 27 c-62 33 -177 118 -248
182 l-53 48 -95 3 c-52 1 -107 4 -124 6 l-30 4 25 -20 c14 -10 55 -40 93 -64
37 -25 67 -48 67 -51 0 -4 -12 2 -27 11 -16 10 -39 25 -53 34 -14 8 -48 32
-77 53 -45 33 -61 38 -125 43 -40 4 -79 8 -85 10 -7 3 -13 3 -13 1z m471 -198
c13 -10 0 -6 -28 8 -29 14 -53 27 -53 29 0 7 55 -19 81 -37z m83 -37 c4 -5 -3
-7 -14 -4 -23 6 -26 13 -6 13 8 0 17 -4 20 -9z"/>
<path d="M3819 576 c-2 -2 -40 -7 -83 -10 -75 -6 -83 -9 -165 -64 -116 -79
-166 -108 -157 -94 4 7 21 19 38 28 43 22 158 106 158 115 0 5 -14 6 -32 4
-18 -2 -72 -5 -121 -6 -49 -2 -91 -7 -95 -13 -30 -46 -284 -236 -315 -236 -6
0 23 23 65 50 42 28 110 82 150 120 l73 70 -150 -2 c-82 -1 -157 -4 -166 -6
-9 -2 -27 -22 -39 -45 -31 -55 -90 -136 -123 -167 -15 -14 -27 -29 -27 -33 0
-5 42 -6 93 -3 50 3 128 7 172 9 146 7 189 14 269 46 124 50 239 103 259 119
9 8 17 11 17 7 0 -5 7 0 16 11 8 10 12 13 9 6 -5 -10 1 -9 24 2 17 9 31 19 31
22 0 3 -5 2 -12 -2 -7 -4 -8 -3 -4 5 4 7 13 10 19 8 6 -2 18 4 27 13 9 9 11
10 5 1 -5 -8 9 -2 33 14 23 15 42 29 42 31 0 5 -6 5 -11 0z m-434 -189 c-23
-16 -63 -32 -52 -21 10 10 51 32 62 33 5 1 1 -5 -10 -12z m-105 -51 c0 -2 -7
-7 -16 -10 -8 -3 -12 -2 -9 4 6 10 25 14 25 6z"/>
<path d="M1865 493 c72 -69 135 -118 212 -165 63 -38 72 -41 162 -45 l96 -4
-36 38 c-67 71 -80 88 -117 148 -19 33 -39 62 -43 65 -5 3 -79 7 -166 8 l-158
2 50 -47z"/>
<path d="M2208 485 c57 -108 139 -205 174 -206 45 0 163 -1 175 0 7 1 10 7 8
14 -3 6 -6 62 -9 122 l-4 110 -28 2 c-16 2 -100 4 -186 5 l-157 3 27 -50z"/>
<path d="M2726 530 l-130 -5 -4 -119 c-2 -70 1 -121 6 -125 6 -3 53 -5 106 -3
l97 3 45 57 c50 63 119 181 111 189 -8 7 -87 9 -231 3z"/>
<path d="M2055 259 c100 -24 244 -46 238 -35 -5 8 -3 8 8 0 8 -6 21 -11 29
-12 8 0 35 -2 60 -5 27 -3 51 -1 59 6 12 9 13 9 7 0 -5 -10 4 -13 38 -13 24 0
52 -3 61 -6 13 -6 16 -1 13 22 l-3 29 -85 3 c-80 3 -84 2 -65 -14 18 -15 18
-15 -8 0 -20 12 -59 18 -140 21 -62 2 -143 6 -182 9 -59 4 -64 3 -30 -5z"/>
<path d="M3036 262 c-2 -1 -60 -4 -129 -6 -106 -3 -132 -7 -164 -25 l-38 -21
27 22 27 23 -88 -3 c-88 -3 -88 -4 -88 -29 l0 -26 130 6 c90 4 133 10 139 19
5 8 8 9 8 2 0 -8 13 -9 43 -4 23 5 60 11 82 15 22 3 65 12 95 20 l55 14 -48
-2 c-27 -1 -50 -3 -51 -5z"/>
</g>
</svg>
